<svg id="Layer_1" data-name="Layer 1" xmlns="http://www.w3.org/2000/svg" viewBox="0 0 48 48"><defs><style>.cls-1{fill:#ff7900}</style></defs><path class="cls-1" d="M18.81 43.28zM16.36 41.88a.8.8 0 0 0 .79.86 2.45 2.45 0 0 0 1.62-.7v-1.58c-1.64.21-2.41.63-2.41 1.42zM5.93 38.5c-1.31 0-1.55 1.18-1.55 2s.24 2 1.55 2 1.55-1.18 1.55-2-.24-2-1.55-2zM33.7 38zM39.47 38.23c-.8 0-1.29.51-1.36 1.42h2.7a1.27 1.27 0 0 0-1.34-1.42z"/><path class="cls-1" d="M45.33 0H2.67A2.67 2.67 0 0 0 0 2.67v42.66A2.67 2.67 0 0 0 2.67 48h42.66A2.67 2.67 0 0 0 48 45.33V2.67A2.67 2.67 0 0 0 45.33 0zM5.93 44.05a3.18 3.18 0 0 1-3.3-3.51A3.19 3.19 0 0 1 5.93 37a3.19 3.19 0 0 1 3.29 3.52 3.18 3.18 0 0 1-3.29 3.53zm8.23-5.33h-.09c-.76 0-1.6.12-1.87.71v4.43h-1.78V37.2h1.67v.8a2.6 2.6 0 0 1 1.84-.92h.23zm6.36 5.14H19l-.16-.58a4 4 0 0 1-2.2.66 1.85 1.85 0 0 1-2-1.94c0-1.49 1.37-2.28 4.2-2.59V39c0-.48-.37-.76-1-.76a2 2 0 0 0-1.63.76L15 38.36a3.25 3.25 0 0 1 2.84-1.3c1.74 0 2.71.75 2.71 2zm7.37 0h-1.76v-4.34c0-.82-.21-1.18-.84-1.18a2.58 2.58 0 0 0-1.65.73v4.78h-1.73v-6.48l1.45-.2.16.79a3.73 3.73 0 0 1 2.29-.92c1.37 0 2.08.72 2.08 2.17zm7.41-.37c0 1.11-.09 3-3.26 3-1.31 0-2.52-.52-2.76-1.66l1.72-.32c.07.33.27.65 1.25.65s1.34-.43 1.34-1.47v-.78a1.75 1.75 0 0 1-1.72 1c-1.55 0-2.77-1.08-2.77-3.33s1.26-3.48 2.67-3.48 1.78.56 1.92.89l.14-.76h1.47zm7.22-2.7h-4.44c0 1.26.54 1.9 1.57 1.9a1.71 1.71 0 0 0 1.51-.85l1.29.71a3.23 3.23 0 0 1-3 1.44c-2 0-3.13-1.26-3.13-3.45s1.19-3.48 3.11-3.48 3.06 1.22 3.06 3.39c.04.1.03.22.03.33zm.7-5.82h-.69v1.91h-.36V35h-.69v-.29h1.74zm2.87 1.91h-.36V35L45 36.87h-.24L44 35v1.83h-.36v-2.2h.56l.66 1.67.64-1.67h.56z"/><path class="cls-1" d="M32.17 38.29c-.64 0-1.34.46-1.34 2 0 .82.06 2.18 1.35 2.17 1.32 0 1.44-1.37 1.44-2.25 0-1.07-.51-1.92-1.45-1.92z"/></svg>